<svg version="1.2" xmlns="http://www.w3.org/2000/svg" viewBox="0 0 77 78" width="77" height="78">
	<style>
		.s0 { fill: #3c893f } 
		.s1 { fill: #1c4596 } 
	</style>
	<g id="Layer_x0020_1">
		<g id="BPJS_x0020_Kesehatan.cdr">
			<path fill-rule="evenodd" class="s0" d="m29.19 48.56l6.23-5.6h-6.9v-7.69h3.25l-6.08-5.51-5.84 5.42h2.98v9.24c0.02 2.86 0.5 4.15 2.98 4.18z"/>
			<path fill-rule="evenodd" class="s0" d="m47.99 29.8l-6.23 5.6h6.9v7.69h-3.25l6.08 5.51 5.83-5.42h-2.98v-9.24c-0.02-2.86-0.49-4.15-2.98-4.18z"/>
			<path fill-rule="evenodd" class="s0" d="m47.97 48.58l-5.6-6.23v6.9h-7.69v-3.25l-5.52 6.08 5.43 5.83v-2.98h9.24c2.86-0.02 4.15-0.49 4.18-2.98z"/>
			<path fill-rule="evenodd" class="s0" d="m29.21 29.78l5.59 6.23v-6.9h7.7v3.25l5.51-6.08-5.42-5.84v2.98h-9.24c-2.86 0.02-4.16 0.5-4.19 2.98z"/>
			<path fill-rule="evenodd" class="s1" d="m4.36 22.02c-0.78 1.26-1.45 1.26-2.04 6.61-0.6 5.34 2.8 10.97 2.8 10.97 0 0-0.35-2.58 1.27-4.71 1.63-2.13 4.87-5.29 6.39-7.42 1.52-2.13 1.91-4.85 1.91-4.85-1.4 0.64-2.95 0.99-4.59 0.99-2.1 0-4.06-0.58-5.74-1.59z"/>
			<path fill-rule="evenodd" class="s1" d="m17.95 12.62c0 4.35-3.52 7.88-7.88 7.88-4.35 0-7.88-3.53-7.88-7.88 0-4.35 3.53-7.88 7.88-7.88 4.36 0 7.88 3.53 7.88 7.88z"/>
			<path fill-rule="evenodd" class="s1" d="m19.04 5.99c0 0 6.05-4.37 12.13-5.22 6.08-0.85 14.8 0.6 14.8 0.6 0 0-4.2 0.3-6.82 1.83-2.61 1.54-4.7 3.89-7.8 6.69-3.1 2.79-5.29 4.62-7.48 5.65-1.41 0.67-2.62 0.83-3.3 0.86q0.65-1.78 0.66-3.78c0-2.48-0.82-4.78-2.19-6.63z"/>
			<path fill-rule="evenodd" class="s0" d="m21.78 73.78c1.26 0.79 1.27 1.45 6.61 2.04 5.34 0.6 10.97-2.79 10.97-2.79 0 0-2.58 0.35-4.71-1.28-2.13-1.63-5.29-4.86-7.42-6.38-2.12-1.52-4.85-1.92-4.85-1.92 0.64 1.4 0.99 2.95 0.99 4.59 0 2.1-0.58 4.06-1.59 5.74z"/>
			<path fill-rule="evenodd" class="s0" d="m12.38 60.19c4.36 0 7.88 3.53 7.88 7.88 0 4.35-3.52 7.88-7.88 7.88-4.35 0-7.88-3.53-7.88-7.88 0-4.35 3.53-7.88 7.88-7.88z"/>
			<path fill-rule="evenodd" class="s0" d="m5.75 59.1c0 0-4.37-6.05-5.22-12.13-0.85-6.08 0.61-14.8 0.61-14.8 0 0 0.29 4.21 1.83 6.82 1.53 2.61 3.88 4.7 6.68 7.8 2.79 3.1 4.62 5.29 5.65 7.48 0.67 1.41 0.83 2.62 0.86 3.3q-1.78-0.64-3.78-0.65c-2.48 0-4.77 0.81-6.63 2.18z"/>
			<path fill-rule="evenodd" class="s1" d="m72.81 56.34c0.79-1.26 1.45-1.27 2.05-6.61 0.59-5.34-2.8-10.97-2.8-10.97 0 0 0.35 2.58-1.28 4.71-1.62 2.13-4.86 5.29-6.38 7.42-1.52 2.12-1.92 4.85-1.92 4.85 1.4-0.64 2.96-0.99 4.59-0.99 2.1 0 4.07 0.58 5.74 1.59z"/>
			<path fill-rule="evenodd" class="s1" d="m59.22 65.74c0-4.36 3.53-7.89 7.88-7.89 4.36 0 7.88 3.53 7.88 7.89 0 4.35-3.52 7.88-7.88 7.88-4.35 0-7.88-3.53-7.88-7.88z"/>
			<path fill-rule="evenodd" class="s1" d="m58.14 72.37c0 0-6.05 4.37-12.13 5.22-6.08 0.85-14.81-0.61-14.81-0.61 0 0 4.21-0.29 6.82-1.83 2.62-1.53 4.7-3.88 7.8-6.68 3.1-2.79 5.29-4.62 7.48-5.65 1.41-0.67 2.62-0.83 3.31-0.86q-0.65 1.78-0.66 3.78c0 2.48 0.81 4.77 2.19 6.63z"/>
			<path fill-rule="evenodd" class="s0" d="m55.39 4.58c-1.25-0.79-1.26-1.45-6.6-2.05-5.34-0.59-10.98 2.8-10.98 2.8 0 0 2.59-0.35 4.72 1.28 2.12 1.62 5.28 4.86 7.41 6.38 2.13 1.52 4.85 1.92 4.85 1.92-0.63-1.4-0.98-2.96-0.98-4.59 0-2.1 0.58-4.06 1.58-5.74z"/>
			<path fill-rule="evenodd" class="s0" d="m64.79 18.17c-4.35 0-7.88-3.53-7.88-7.88 0-4.35 3.53-7.88 7.88-7.88 4.35 0 7.88 3.53 7.88 7.88 0 4.35-3.53 7.88-7.88 7.88z"/>
			<path fill-rule="evenodd" class="s0" d="m71.43 19.26c0 0 4.37 6.05 5.22 12.13 0.85 6.08-0.61 14.8-0.61 14.8 0 0-0.29-4.21-1.83-6.82-1.53-2.62-3.89-4.7-6.68-7.8-2.8-3.1-4.62-5.29-5.66-7.48-0.66-1.41-0.82-2.62-0.85-3.3q1.78 0.64 3.77 0.65c2.49 0 4.78-0.81 6.63-2.18z"/>
		</g>
	</g>
</svg>